Front Seat,
When Cecily Branksome retires back to her old home town over her husband's objections she becomes involved with her boorish old boyfriend and a 30 year old murder...

The Double,
Two identical women, one virginal and good and the other sexy and seductive, vie for the affections of a young stockbroker...

A Dark Blue Perfume,
A middle-aged man is still haunted by a love affair from his youth which almost ended in murder...

Bribery & Corruption,
A recent college graduate believes he loves the wife of his father's former friend, but young Nicholas does not know that she's having an affair with his father...

May and June,
After a lifetime of sibling rivalry, mousy May accepts an invitation from her recently-widowed younger sister June, to live with her in her elegant home...

General:

Complete name                    : Bribery And Corruption 1.avi
Format                           : AVI
Format/Info                      : Audio Video Interleave
File size                        : 602 MiB
Duration                         : 50mn 52s
Overall bit rate                 : 1 656 Kbps

Video:

Format                           : MPEG-4 Visual
Format profile                   : Simple@L3
Format settings, BVOP            : No
Format settings, QPel            : No
Format settings, GMC             : No warppoints
Format settings, Matrix          : Default (H.263)
Codec ID                         : XVID
Codec ID/Hint                    : XviD
Duration                         : 50mn 52s
Bit rate                         : 1 421 Kbps
Width                            : 640 pixels
Height                           : 480 pixels
Display aspect ratio             : 4:3
Frame rate                       : 25.000 fps
Color space                      : YUV
Chroma subsampling               : 4:2:0
Bit depth                        : 8 bits
Scan type                        : Progressive
Bits/(Pixel*Frame)               : 0.185
Stream size                      : 517 MiB (86%)
Writing library                  : XviD 1.1.2 (UTC 2006-11-01)

Audio:

Format                           : AC-3
Format/Info                      : Audio Coding 3
Mode extension                   : CM (complete main)
Codec ID                         : 2000
Duration                         : 50mn 52s
Bit rate mode                    : Constant
Bit rate                         : 224 Kbps
Channel(s)                       : 2 channels
Channel positions                : Front: L R
Sampling rate                    : 48.0 KHz
Bit depth                        : 16 bits
Stream size                      : 81.5 MiB (14%)
Alignment                        : Aligned on interleaves
Interleave, duration             : 32 ms (0.80 video frame)